<?xml version="1.0" encoding="UTF-8"?><svg id="firefish" xmlns="http://www.w3.org/2000/svg" viewBox="0 0 1800 1800"><g id="fish"><g id="body"><path d="m932,772.05H100c-53.02,0-96,42.98-96,96v832c0,53.02,42.98,96,96,96h832c53.02,0,96-42.98,96-96v-832c0-53.02-42.98-96-96-96Zm-672,768c-70.69,0-128-57.31-128-128s57.31-128,128-128,128,57.31,128,128-57.31,128-128,128Zm320,0c-70.69,0-128-57.31-128-128s57.31-128,128-128,128,57.31,128,128-57.31,128-128,128Z"/></g><g id="fin-l"><path d="m931.66,643.73h-439.94c-52.98,0-95.94-42.95-95.94-95.94V107.86c0-85.47,103.34-128.27,163.77-67.84l439.94,439.94c60.44,60.44,17.63,163.77-67.84,163.77Z"/></g><g id="fin-b"><path d="m1698.66,1412.05h-445.51c-53.65,0-97.15-43.5-97.15-97.15v-445.51c0-86.55,104.64-129.9,165.84-68.7l445.51,445.51c61.2,61.2,17.86,165.84-68.7,165.84Z"/></g><g id="fin-r"><path d="m1698.66,643.94h-445.51c-53.65,0-97.15-43.5-97.15-97.15V101.29c0-86.55,104.64-129.9,165.84-68.7l445.51,445.51c61.2,61.2,17.86,165.84-68.7,165.84Z"/></g></g></svg>